<svg height="902.8634996937201" version="1.1" viewBox="-491.2137670410619 -408.0955044933534 970.4270019351011 902.8634996937201" width="970.4270019351011" xmlns="http://www.w3.org/2000/svg" xmlns:ev="http://www.w3.org/2001/xml-events" xmlns:xlink="http://www.w3.org/1999/xlink"><path d="M -275.5476925322862,155.8708483694918 -443.6309821042741,363.3566653487959 -347.05288698542427,345.93513389035866" fill="none" stroke="#b6303c" stroke-width="3" /><path d="M 213.8308561045684,138.689767211059 166.46911535161576,494.7679952003667 -242.21073943619297,388.7681261622571" fill="none" stroke="#e2798f" stroke-width="3" /><path d="M -39.68348824005585,-389.96291752417415 -480.1824137607285,-282.2200335503127 479.21323489403926,245.73868537866895" fill="none" stroke="#721cbc" stroke-width="3" /><path d="M 155.76060465928765,-250.8876512751156 -445.30697146315777,486.1629271320834 -491.2137670410619,4.93360150504941" fill="none" stroke="#caa1c1" stroke-width="3" /><path d="M -282.7262122335828,308.4359158768517 363.39292004594915,402.08597840777963 126.94671816777611,-282.8317977502303" fill="none" stroke="#7a708d" stroke-width="3" /><path d="M -333.09624283832943,164.19110967753215 -48.889765220834875,-144.3539841202325 162.48342258559228,412.4036124273787" fill="none" stroke="#a5931d" stroke-width="3" /><path d="M 345.12645099505596,-328.18632592040706 -113.60564866630938,-336.4254608136692 38.35679172011942,214.5039645762082" fill="none" stroke="#4fdf50" stroke-width="3" /><path d="M 465.72929772694727,-167.09187326585715 -229.18052111093078,350.8460810831374 -21.177884326207618,485.67584153777557" fill="none" stroke="#414c73" stroke-width="3" /><path d="M 330.48103566251234,-211.9631590093901 -402.4032067739387,209.30943313573732 -310.47388556163605,-408.0955044933534" fill="none" stroke="#740ff6" stroke-width="3" /><path d="M -436.93753651996417,349.24061316074756 30.865050078995523,-89.33805049991093 355.82286245109094,224.04761043158953" fill="none" stroke="#c38e16" stroke-width="3" /></svg>