<svg height="829.3134137597465" version="1.1" viewBox="-491.2094827047254 -446.6679461888702 942.8164673506069 829.3134137597465" width="942.8164673506069" xmlns="http://www.w3.org/2000/svg" xmlns:ev="http://www.w3.org/2001/xml-events" xmlns:xlink="http://www.w3.org/1999/xlink"><path d="M -410.1213119619247,-153.31236922029956 -45.32066809032352,-14.64366228638147 9.983502325323741,-446.6679461888702" fill="none" stroke="#ecaa76" stroke-width="3" /><path d="M -289.27586752537695,323.7409213400838 451.6069846458814,269.30768779356436 -200.1115427007358,-84.83225252115534" fill="none" stroke="#376968" stroke-width="3" /><path d="M -451.5943903313957,-40.62102038004821 428.3268602129774,263.9381674708427 -421.49516237570896,-94.59584411181032" fill="none" stroke="#2b2c13" stroke-width="3" /><path d="M 261.01693953568713,154.39979826613057 -167.8367650534205,-214.93219364879224 428.84870745319984,-10.845993496759434" fill="none" stroke="#c98cb5" stroke-width="3" /><path d="M -170.95795177392125,-139.1498973084918 -152.75535246634496,70.10387804756374 -436.01987127394926,-370.8400231280376" fill="none" stroke="#907ba5" stroke-width="3" /><path d="M -207.8368415263683,208.14783940150744 -240.07211993445333,382.64546757087635 291.65787451157973,-144.27432145453736" fill="none" stroke="#47e250" stroke-width="3" /><path d="M -43.7655137730095,-337.37908957873094 133.26576847297258,301.3599083536219 112.3241758333337,167.69127022298449" fill="none" stroke="#e56531" stroke-width="3" /><path d="M -20.150082477835667,-5.808867910755168 -460.4351948785006,-340.7896153875603 -207.73123708973293,-101.09345812492421" fill="none" stroke="#d2bd54" stroke-width="3" /><path d="M -255.14384382022592,300.4962140938188 -229.52733501370147,221.93491318054055 379.33247273922325,63.267680056817085" fill="none" stroke="#825149" stroke-width="3" /><path d="M -491.2094827047254,-428.5554400924467 423.08219467152935,-111.07879593238613 433.402093157419,200.15585296246502" fill="none" stroke="#5c8d03" stroke-width="3" /></svg>