<svg height="968.846554098747" version="1.1" viewBox="-479.12849923515023 -499.5766091064384 947.3854597357284 968.846554098747" width="947.3854597357284" xmlns="http://www.w3.org/2000/svg" xmlns:ev="http://www.w3.org/2001/xml-events" xmlns:xlink="http://www.w3.org/1999/xlink"><path d="M -158.55552724840373,55.84955389294885 75.46225301632887,259.84319430822404 368.3252743654607,-180.7886397787064" fill="none" stroke="#5d727e" stroke-width="3" /><path d="M -95.6109717716185,-424.6615457548818 -173.60016122357047,308.43204354247496 367.3915164041466,-294.45342456827814" fill="none" stroke="#6a5697" stroke-width="3" /><path d="M -306.5904424165792,301.9292231652008 394.4454626644866,-204.5829472358143 -479.12849923515023,143.91479440800526" fill="none" stroke="#5022c1" stroke-width="3" /><path d="M 98.54196084976275,323.7237263867295 468.2569605005782,-25.37617604973053 289.8057779825248,-499.5766091064384" fill="none" stroke="#a3e75b" stroke-width="3" /><path d="M 39.38364087817524,-206.6780015466282 -180.73103428296332,321.30579521318316 433.41933254404057,-371.94357450173356" fill="none" stroke="#b0a2f6" stroke-width="3" /><path d="M -222.2213565925021,138.97514271002376 -424.5680907473264,387.34675993507074 -41.01112453590673,-435.5104530829621" fill="none" stroke="#e85742" stroke-width="3" /><path d="M -151.91705781495256,-176.73701022447642 -96.62248857992438,68.04284890650467 -194.44743527055766,-158.5659339667904" fill="none" stroke="#a3fd56" stroke-width="3" /><path d="M 56.43648011800906,-386.30613486614277 -85.7516943699066,-38.458547006356866 -309.45025626112977,469.26994499230864" fill="none" stroke="#4f3e6a" stroke-width="3" /><path d="M -237.8303482240529,-132.18201222839042 187.9705761604689,144.24545471056217 -412.00257052099346,106.44037391338406" fill="none" stroke="#d6953a" stroke-width="3" /><path d="M 355.2838569597925,166.08665373193242 -190.14865423727724,-373.24635209574996 -36.59202165853736,-152.167279049645" fill="none" stroke="#e0e126" stroke-width="3" /></svg>