<svg height="1125.8330249197697" version="1.1" viewBox="-40.000000000000085 -987.2689603142594 1150.0000000000002 1125.8330249197697" width="1150.0000000000002" xmlns="http://www.w3.org/2000/svg" xmlns:ev="http://www.w3.org/2001/xml-events" xmlns:xlink="http://www.w3.org/1999/xlink"><path d="M 20.0,0.0 30.0,17.32050807568877 10.0,17.320508075688775 -3.552713678800501e-15,34.64101615137754 19.999999999999996,34.64101615137755 40.0,34.641016151377556 50.00000000000001,17.32050807568879 70.0,17.3205080756888 80.0,34.64101615137758 90.0,51.961524227066356 70.0,51.961524227066356 59.99999999999999,34.641016151377585 49.999999999999986,51.961524227066356 59.99999999999998,69.28203230275514 49.99999999999997,86.6025403784439 29.99999999999997,86.6025403784439 9.999999999999972,86.6025403784439 19.999999999999957,69.28203230275513 39.99999999999996,69.2820323027551 29.99999999999995,51.961524227066334 9.99999999999995,51.961524227066334 -5.3290705182007514e-14,69.28203230275511 -20.000000000000053,69.28203230275511 -10.000000000000068,51.961524227066334 -20.000000000000078,34.64101615137757 -30.00000000000008,51.96152422706634 -40.000000000000085,69.28203230275511 -30.000000000000092,86.60254037844389 -10.000000000000092,86.6025403784439 -9.769962616701378e-14,103.92304845413268 -20.0000000000001,103.92304845413268 -30.000000000000103,121.24355652982146 -10.000000000000103,121.24355652982148 9.999999999999897,121.24355652982149 19.999999999999908,103.92304845413273 39.99999999999991,103.92304845413274 49.9999999999999,121.24355652982152 29.9999999999999,121.24355652982152 19.999999999999897,138.56406460551028 39.9999999999999,138.56406460551028 59.9999999999999,138.56406460551028 69.99999999999991,121.24355652982152 59.99999999999993,103.92304845413274 69.99999999999994,86.60254037844398 79.99999999999996,69.28203230275521 89.99999999999996,86.60254037844399 79.99999999999996,103.92304845413275 99.99999999999996,103.92304845413277 109.99999999999997,86.602540378444" fill="none" stroke="#001902" stroke-width="3" /><path d="M 630.0,86.60254037844425 640.0,69.28203230275548 630.0,51.961524227066704 640.0,34.64101615137794 660.0,34.64101615137795 670.0,51.961524227066725 660.0,69.2820323027555 670.0,86.60254037844427 690.0,86.60254037844429" fill="none" stroke="#d561b7" stroke-width="3" /><path d="M 760.0,86.60254037844433 770.0,69.28203230275557 760.0,51.96152422706679 770.0,34.641016151378025 790.0,34.64101615137803 800.0,51.96152422706681 790.0,69.28203230275558 800.0,86.60254037844436 820.0,86.60254037844437" fill="none" stroke="#d561b7" stroke-width="3" /><path d="M 1080.0000000000002,-363.7306695894636 1070.0000000000002,-381.0511776651524 1050.0000000000002,-381.0511776651524 1040.0000000000002,-398.3716857408412 1050.0000000000002,-415.69219381653 1070.0000000000002,-415.69219381653 1080.0000000000002,-398.3716857408412 1100.0000000000002,-398.3716857408412 1110.0000000000002,-415.69219381653" fill="none" stroke="#d561b7" stroke-width="3" /><path d="M 850.0000000000006,-866.0254037844383 860.0000000000006,-883.345911860127 870.0000000000006,-866.0254037844383 890.0000000000006,-866.0254037844383 880.0000000000006,-883.345911860127 870.0000000000006,-900.6664199358157 850.0000000000006,-900.6664199358157 840.0000000000006,-917.9869280115045 850.0000000000006,-935.3074360871932 860.0000000000006,-952.6279441628819 870.0000000000006,-935.3074360871932 860.0000000000006,-917.9869280115045 880.0000000000006,-917.9869280115045 890.0000000000006,-935.3074360871932 910.0000000000006,-935.3074360871932 920.0000000000006,-917.9869280115045 930.0000000000006,-900.6664199358157 910.0000000000006,-900.6664199358157 900.0000000000006,-917.9869280115045 890.0000000000006,-900.6664199358157 900.0000000000006,-883.345911860127 920.0000000000006,-883.345911860127 930.0000000000006,-866.0254037844383 910.0000000000006,-866.0254037844383 900.0000000000006,-848.7048957087495 920.0000000000006,-848.7048957087495 940.0000000000006,-848.7048957087495 950.0000000000006,-866.0254037844383 940.0000000000006,-883.345911860127 950.0000000000006,-900.6664199358157 960.0000000000006,-883.345911860127 980.0000000000006,-883.345911860127 970.0000000000006,-900.6664199358157 960.0000000000006,-917.9869280115045 940.0000000000006,-917.9869280115045 930.0000000000006,-935.3074360871932 940.0000000000006,-952.6279441628819 950.0000000000006,-935.3074360871932 970.0000000000006,-935.3074360871932 960.0000000000006,-952.6279441628819 950.0000000000006,-969.9484522385707 930.0000000000006,-969.9484522385707 920.0000000000006,-952.6279441628819 900.0000000000006,-952.6279441628819 880.0000000000006,-952.6279441628819 890.0000000000006,-969.9484522385707 910.0000000000006,-969.9484522385707 900.0000000000006,-987.2689603142594 880.0000000000006,-987.2689603142594" fill="none" stroke="#a6439f" stroke-width="3" /></svg>