<svg height="362.5191988127132" version="1.1" viewBox="-256.6013430579297 -130.91785575478343 362.5191988127133 362.5191988127132" width="362.5191988127133" xmlns="http://www.w3.org/2000/svg" xmlns:ev="http://www.w3.org/2001/xml-events" xmlns:xlink="http://www.w3.org/1999/xlink"><path d="M 0,0 0,100 100,100 100,0 0,0" fill="none" stroke="#ff0000" stroke-width="3" /><path d="M 13.529902503654926,32.664074121909415 -24.738440732854052,125.0520273730381 67.64951251827463,163.32037060954707 105.9178557547836,70.93241735841839 13.529902503654926,32.664074121909415" fill="none" stroke="#0000ff" stroke-width="3" /><path d="M 13.529902503654922,68.01941318123679 -57.18077561499983,138.7300912998915 13.529902503654908,209.4407694185463 84.24058062230966,138.73009129989154 13.529902503654922,68.01941318123679" fill="none" stroke="#008000" stroke-width="3" /><path d="M -7.105427357601002e-15,100.6834873031462 -92.38795325112869,138.95183053965516 -54.11961001461972,231.33978379078383 38.26834323650896,193.0714405542749 -7.105427357601002e-15,100.6834873031462" fill="none" stroke="#808080" stroke-width="3" /><path d="M -25.000000000000004,125.6834873031462 -124.99999999999997,125.6834873031462 -124.99999999999997,225.68348730314617 -25.00000000000001,225.68348730314617 -25.000000000000004,125.6834873031462" fill="none" stroke="#ffd700" stroke-width="3" /><path d="M -57.66407412190944,139.21338980680113 -150.05202737303807,100.94504657029216 -188.32037060954707,193.3329998214208 -95.9324173584184,231.6013430579298 -57.66407412190944,139.21338980680113" fill="none" stroke="#fffff0" stroke-width="3" /><path d="M -93.01941318123679,139.21338980680113 -163.7300912998915,68.50271168814639 -234.44076941854624,139.2133898068011 -163.7300912998915,209.92406792545586 -93.01941318123679,139.21338980680113" fill="none" stroke="#f0e68c" stroke-width="3" /><path d="M -125.68348730314617,125.68348730314618 -163.9518305396551,33.29553405201753 -256.33978379078377,71.56387728852647 -218.07144055427483,163.95183053965513 -125.68348730314617,125.68348730314618" fill="none" stroke="#fdf5e6" stroke-width="3" /><path d="M -150.68348730314614,100.6834873031462 -150.6834873031461,0.6834873031462223 -250.68348730314608,0.6834873031462081 -250.6834873031461,100.68348730314618 -150.68348730314614,100.6834873031462" fill="none" stroke="#808000" stroke-width="3" /><path d="M -164.21338980680105,68.01941318123679 -125.94504657029206,-24.36854006989185 -218.33299982142069,-62.63688330640085 -256.6013430579297,29.751069944727803 -164.21338980680105,68.01941318123679" fill="none" stroke="#ffc0cb" stroke-width="3" /><path d="M -164.213389806801,32.664074121909415 -93.50271168814625,-38.04660399674528 -164.21338980680093,-108.75728211540005 -234.9240679254557,-38.046603996745326 -164.213389806801,32.664074121909415" fill="none" stroke="#800080" stroke-width="3" /><path d="M -150.68348730314605,2.1316282072803006e-14 -58.295534052017416,-38.268343236508905 -96.56387728852634,-130.65629648763755 -188.95183053965496,-92.38795325112861 -150.68348730314605,2.1316282072803006e-14" fill="none" stroke="#d2b48c" stroke-width="3" /><path d="M -125.6834873031461,-24.999999999999954 -25.683487303146165,-24.999999999999922 -25.683487303146137,-124.99999999999986 -125.68348730314607,-124.99999999999989 -125.6834873031461,-24.999999999999954" fill="none" stroke="#ee82ee" stroke-width="3" /><path d="M -93.0194131812367,-38.52990250365485 -0.6314599301081074,-0.26155926714586997 37.636883306400875,-92.64951251827446 -54.75106994472772,-130.91785575478343 -93.0194131812367,-38.52990250365485" fill="none" stroke="#ffffff" stroke-width="3" /><path d="M -57.664074121909344,-38.52990250365483 13.046603996745311,32.180775614999895 83.75728211540005,-38.52990250365476 13.046603996745382,-109.2405806223095 -57.664074121909344,-38.52990250365483" fill="none" stroke="#fa8072" stroke-width="3" /><path d="M -24.999999999999964,-24.999999999999904 13.268343236508933,67.3879532511287 105.65629648763755,29.119610014619806 67.38795325112864,-63.2683432365088 -24.999999999999964,-24.999999999999904" fill="none" stroke="#00ff00" stroke-width="3" /></svg>